Coordinates
version=1
nRows=17
nColumns=23
inDegrees=yes

Units are S.I. units (second, meters, Newtons, ...)
If the header above contains a line with 'inDegrees', this indicates whether rotational values are in degrees (yes) or radians (no).

endheader
time	pelvis_tilt	pelvis_list	pelvis_rotation	pelvis_tx	pelvis_ty	pelvis_tz	hip_flexion_r	hip_adduction_r	hip_rotation_r	knee_angle_r	knee_angle_r_beta	ankle_angle_r	subtalar_angle_r	mtp_angle_r	hip_flexion_l	hip_adduction_l	hip_rotation_l	knee_angle_l	knee_angle_l_beta	ankle_angle_l	subtalar_angle_l	mtp_angle_l
      0.00000000	     -0.03182119	      4.45035109	      4.81085438	      2.15541861	      1.06551804	      1.02386091	     36.87715007	     -3.60734493	     -0.38834320	    111.01166792	      1.93751911	      4.32660097	    -15.51151703	      0.00000000	     -1.88067332	      4.38437302	     -4.45709759	     33.63787208	      0.58709162	     25.42859019	     12.68201150	      0.00000000
      0.00666667	     -0.74742160	      3.51356826	      5.00347418	      2.15699356	      1.06977250	      1.02366501	     38.95086199	     -2.99625227	     -1.05359760	    108.78106963	      1.89858783	      4.85261450	    -15.75447150	      0.00000000	     -3.18162577	      3.30953174	     -4.40177919	     31.87916246	      0.55639635	     23.12791600	     13.06355809	      0.00000000
      0.01333333	     -0.90626576	      2.58511404	      5.10771544	      2.15877523	      1.07486781	      1.02344642	     40.15759169	     -2.31984587	     -1.71448098	    106.30730791	      1.85541254	      5.39790576	    -16.14596631	      0.00000000	     -5.34272457	      2.39950044	     -3.84916964	     29.51098571	      0.51506387	     20.52162697	     12.51966197	      0.00000000
      0.02000000	     -1.34420606	      1.51243935	      5.17628134	      2.16059976	      1.07934467	      1.02332639	     41.54814426	     -1.47840437	     -2.42384120	    103.72875471	      1.81040830	      6.02097897	    -16.52000756	      0.00000000	     -7.09175320	      1.28647395	     -3.64146565	     27.28372590	      0.47619085	     17.78152160	     12.35455025	      0.00000000
      0.02666667	     -1.81283592	      0.50678190	      5.29662681	      2.16242124	      1.08373735	      1.02307617	     42.81718825	     -0.78812229	     -3.16342285	    101.02425900	      1.76320594	      6.74325025	    -16.72202649	      0.00000000	     -8.85791998	      0.36472437	     -2.97165542	     24.85106300	      0.43373287	     14.67463094	     11.41771939	      0.00000000
      0.03333333	     -2.32933136	     -0.57116047	      5.28876764	      2.16439160	      1.08785541	      1.02305730	     44.01935358	      0.07041020	     -3.86921586	     98.17057169	      1.71339970	      7.39724811	    -17.01339636	      0.00000000	    -10.49469684	     -0.66780654	     -2.64909818	     22.52521212	      0.39313912	     11.50336315	     10.69873133	      0.00000000
      0.04000000	     -2.87699649	     -1.65767245	      5.16699281	      2.16637144	      1.09172076	      1.02325745	     45.14395215	      1.02782492	     -4.50010094	     95.17415370	      1.66110234	      8.01096499	    -17.35164494	      0.00000000	    -11.97093145	     -1.74181623	     -2.68912726	     20.40236286	      0.35608841	      8.33133764	     10.31633248	      0.00000000
      0.04666667	     -3.50545512	     -2.63606878	      5.03945631	      2.16835364	      1.09537123	      1.02348553	     46.22558711	      1.83918069	     -5.10435265	     92.04913868	      1.60656054	      8.62685394	    -17.50556276	      0.00000000	    -13.31513364	     -2.63674840	     -2.48312580	     18.32091991	      0.31976037	      4.99233771	      9.38090272	      0.00000000
      0.05333333	     -4.29034532	     -3.57369759	      4.70477746	      2.17030466	      1.09848629	      1.02412965	     47.39659248	      2.81066228	     -5.50447906	     88.80905932	      1.55001049	      9.23763952	    -17.56991264	      0.00000000	    -14.20363069	     -3.57753157	     -3.17121194	     16.82901623	      0.29372174	      1.84505652	      9.30094619	      0.00000000
      0.06000000	     -4.78349209	     -4.36088727	      4.40692668	      2.17228407	      1.10188260	      1.02468259	     48.06858429	      3.58889969	     -5.89782465	     85.39224150	      1.49037577	      9.78936062	    -17.64135815	      0.00000000	    -15.43210292	     -4.29925199	     -3.48116729	     15.24785876	      0.26612534	     -1.39629936	      8.68830196	      0.00000000
      0.06666667	     -5.42828740	     -4.98524949	      3.97947775	      2.17427521	      1.10485389	      1.02545668	     48.77035867	      4.28950832	     -6.13499112	     81.85585506	      1.42865418	     10.40237921	    -17.40464028	      0.00000000	    -16.30819154	     -4.84091918	     -4.06602302	     14.07056372	      0.24557766	     -4.52683808	      7.97668448	      0.00000000
      0.07333333	     -5.95954539	     -5.44615010	      3.48216649	      2.17607845	      1.10764616	      1.02643605	     49.23635286	      4.96894745	     -6.18823128	     78.21874603	      1.36517466	     11.01031383	    -17.01035014	      0.00000000	    -17.03907580	     -5.27398411	     -5.15113544	     13.42315455	      0.23427824	     -7.40273095	      7.87960104	      0.00000000
      0.08000000	     -6.37675201	     -5.72948813	      2.95484411	      2.17787896	      1.11032915	      1.02744417	     49.41697967	      5.49407664	     -6.16476349	     74.45357760	      1.29946007	     11.63720992	    -16.35621056	      0.00000000	    -17.75245157	     -5.51345246	     -6.27768352	     13.06005770	      0.22794101	    -10.13361212	      7.50414886	      0.00000000
      0.08666667	     -6.66095742	     -5.84454400	      2.42322758	      2.17962221	      1.11286569	      1.02846883	     49.30544714	      5.86697056	     -6.08951455	     70.58307512	      1.23190706	     12.29936776	    -15.41713847	      0.00000000	    -18.43916471	     -5.58413876	     -7.44368549	     13.03359811	      0.22747920	    -12.66449454	      6.96349778	      0.00000000
      0.09333333	     -6.77880993	     -5.82194979	      1.90694697	      2.18130080	      1.11523745	      1.02947459	     48.87558489	      6.07950767	     -6.03192547	     66.62665359	      1.16285447	     12.99778642	    -14.14551824	      0.00000000	    -19.12576430	     -5.53092348	     -8.63592431	     13.36418292	      0.23324899	    -14.95096715	      6.26947616	      0.00000000
      0.10000000	     -6.89854613	     -5.67482657	      1.39970494	      2.18291601	      1.11718023	      1.03049602	     48.32318110	      6.16650261	     -5.97546101	     62.60086154	      1.09259115	     13.67731878	    -12.67258302	      0.00000000	    -19.59519743	     -5.38116360	     -9.82381466	     14.13996737	      0.24678899	    -16.84616038	      5.43019344	      0.00000000
      0.10666667	     -6.76685564	     -5.48215393	      0.97307294	      2.18448397	      1.11899037	      1.03138921	     47.37982023	      6.09506434	     -6.12719899	     58.52580463	      1.02146799	     14.41553705	    -10.74077463	      0.00000000	    -20.18224386	     -5.22099422	    -10.91456784	     15.22667541	      0.26575562	    -18.44103716	      4.47103889	      0.00000000
